<svg width="16" height="16" viewBox="0 0 16 16" fill="none" xmlns="http://www.w3.org/2000/svg">
<g clip-path="url(#clip0_378_235)">
<rect width="16" height="16" rx="3" fill="white"/>
<path d="M5.00146 2H6.00146V3H5.00146V2ZM6.00146 2H7.00146V3H6.00146V2ZM7.00146 2H8.00147V3H7.00146V2ZM8.00147 2H9.00147V3H8.00147V2ZM9.00147 2H10.0015V3H9.00147V2ZM5.00146 3H6.00146V4H5.00146V3ZM6.00146 3H7.00146V4H6.00146V3ZM7.00146 3H8.00147V4H7.00146V3ZM8.00147 3H9.00147V4H8.00147V3ZM9.00147 3H10.0015V4H9.00147V3ZM10.0015 2H11.0015V3H10.0015V2ZM10.0015 3H11.0015V4H10.0015V3ZM11.0015 3H12.0015V4H11.0015V3ZM10.0015 12H11.0015V13H10.0015V12ZM9.00147 12H10.0015V13H9.00147V12ZM8.00147 12H9.00147V13H8.00147V12ZM7.00146 12H8.00147V13H7.00146V12ZM6.00146 12H7.00146V13H6.00146V12ZM5.00146 12H6.00146V13H5.00146V12ZM4.00146 12H5.00146V13H4.00146V12ZM9.00147 13H10.0015V14H9.00147V13ZM8.00147 13H9.00147V14H8.00147V13ZM7.00146 13H8.00147V14H7.00146V13ZM6.00146 13H7.00146V14H6.00146V13ZM5.00146 13H6.00146V14H5.00146V13ZM4.00146 3H5.00146V4H4.00146V3ZM3.00146 4H4.00146V5H3.00146V4ZM4.00146 13H5.00146V14H4.00146V13ZM3.00146 13H4.00146V14H3.00146V13ZM5.00146 11H6.00146V12H5.00146V11ZM6.00146 10H7.00146V11H6.00146V10ZM11.0015 2H12.0015V3H11.0015V2ZM12.0015 2H13.0015V3H12.0015V2ZM13.0015 2H14.0015V3H13.0015V2ZM12.0015 3H13.0015V4H12.0015V3ZM11.0015 4H12.0015V5H11.0015V4ZM10.0015 5H11.0015V6H10.0015V5ZM9.00147 6H10.0015V7H9.00147V6ZM8.00147 7H9.00147V8H8.00147V7ZM7.00146 9H8.00147V10H7.00146V9ZM7.00146 8H8.00147V9H7.00146V8ZM6.00146 8H7.00146V9H6.00146V8ZM8.00147 8H9.00147V9H8.00147V8ZM9.00147 8H10.0015V9H9.00147V8ZM10.0015 7H11.0015V8H10.0015V7ZM9.00147 7H10.0015V8H9.00147V7ZM7.00146 7H8.00147V8H7.00146V7ZM11.0015 12H12.0015V13H11.0015V12ZM11.0015 13H12.0015V14H11.0015V13ZM10.0015 13H11.0015V14H10.0015V13ZM12.0015 12H13.0015V13H12.0015V12ZM13.0015 11H14.0015V12H13.0015V11ZM11.0015 7H12.0015V8H11.0015V7ZM10.0015 8H11.0015V9H10.0015V8ZM6.00146 7H7.00146V8H6.00146V7ZM5.00146 8H6.00146V9H5.00146V8ZM3.00146 5H4.00146V6H3.00146V5ZM4.00146 7H5.00146V8H4.00146V7ZM3.00146 6H4.00146V7H3.00146V6Z" fill="#4A5759"/>
</g>
<rect x="0.5" y="0.5" width="15" height="15" rx="2.5" stroke="#4A5759"/>
<defs>
<clipPath id="clip0_378_235">
<rect width="16" height="16" rx="3" fill="white"/>
</clipPath>
</defs>
</svg>
