<svg width="103" height="144" viewBox="0 0 103 144" fill="none" xmlns="http://www.w3.org/2000/svg">
<path d="M87.4264 0C87.4264 0 75.616 11.4584 62.8429 16.0781C-31.7456 50.2911 8.1464 116.963 9.44782 117.182C9.44782 117.182 14.7519 107.946 21.9168 102.677C67.3829 69.2531 76.6237 30.7802 76.6237 30.7802C76.6237 30.7802 66.4212 77.0754 25.9724 105.882C17.0387 112.241 10.9895 127.898 8.42886 143.547C8.42886 143.547 14.7615 140.988 17.4846 140.295C18.5465 133.365 20.7667 126.73 24.5202 120.802C81.0523 127.533 99.5676 81.9804 101.986 66.0966C107.695 28.5822 87.4264 0 87.4264 0Z" fill="#4A5759"/>
</svg>
