<svg width="54" height="76" viewBox="0 0 54 76" fill="none" xmlns="http://www.w3.org/2000/svg">
<path d="M45.8348 0C45.8348 0 39.643 6.00726 32.9465 8.4292C-16.6432 26.366 4.27089 61.3197 4.95318 61.4349C4.95318 61.4349 7.73393 56.5924 11.4903 53.8304C35.3266 36.3071 40.1713 16.1371 40.1713 16.1371C40.1713 16.1371 34.8224 40.4081 13.6164 55.5102C8.93282 58.844 5.76145 67.0525 4.41898 75.2568C4.41898 75.2568 7.73898 73.9154 9.16662 73.5521C9.72334 69.9191 10.8873 66.4404 12.8551 63.3327C42.4931 66.8614 52.2 42.9796 53.4681 34.6523C56.4611 14.9847 45.8348 0 45.8348 0Z" fill="#FFF7F3"/>
</svg>
